<?xml version="1.0" encoding="UTF-8" standalone="no"?>
<svg
        width="210mm"
        height="297mm"
        version="1.1"
        viewBox="0 0 210 297"
        id="svg37"
        sodipodi:docname="splash.svg"
        inkscape:version="1.1 (c68e22c387, 2021-05-23)"
        xmlns:inkscape="http://www.inkscape.org/namespaces/inkscape"
        xmlns:sodipodi="http://sodipodi.sourceforge.net/DTD/sodipodi-0.dtd"
        xmlns="http://www.w3.org/2000/svg"
>
  <sodipodi:namedview
     id="namedview39"
     pagecolor="#ffffff"
     bordercolor="#666666"
     borderopacity="1.0"
     inkscape:pageshadow="2"
     inkscape:pageopacity="0.0"
     inkscape:pagecheckerboard="0"
     inkscape:document-units="mm"
     showgrid="false"
     inkscape:zoom="0.80087682"
     inkscape:cx="110.50388"
     inkscape:cy="561.25984"
     inkscape:window-width="2560"
     inkscape:window-height="1411"
     inkscape:window-x="-9"
     inkscape:window-y="-9"
     inkscape:window-maximized="1"
     inkscape:current-layer="svg37" />
  <defs
     id="defs13">
    <filter
       id="filter1525"
       color-interpolation-filters="sRGB"
       x="-0.0037583731"
       y="-0.017319423"
       width="1.0075167"
       height="1.0346388">
      <feFlood
         flood-color="rgb(0,0,0)"
         flood-opacity=".49804"
         result="flood"
         id="feFlood2" />
      <feComposite
         in="flood"
         in2="SourceGraphic"
         operator="in"
         result="composite1"
         id="feComposite4" />
      <feGaussianBlur
         in="composite1"
         result="blur"
         stdDeviation="0.7"
         id="feGaussianBlur6" />
      <feOffset
         dx="2.77556e-17"
         dy="2.77556e-17"
         result="offset"
         id="feOffset8" />
      <feComposite
         in="SourceGraphic"
         in2="offset"
         result="composite2"
         id="feComposite10" />
    </filter>
  </defs>
  <g
     transform="matrix(.26458 0 0 .26458 12.695 121.74)"
     clip-rule="evenodd"
     fill-rule="evenodd"
     stroke-linejoin="round"
     stroke-miterlimit="2"
     id="g35"
     inkscape:export-filename="D:\Projects\Kotlin\XControlPlus\src\main\resources\assets\logo\splash.png"
     inkscape:export-xdpi="104"
     inkscape:export-ydpi="104">
    <path
       d="m-222.18-291.55h722.68a79.375 79.375 45 0 1 79.375 79.375v346.96a79.375 79.375 135 0 1-79.375 79.375h-722.68a79.375 79.375 45 0 1-79.375-79.375v-346.96a79.375 79.375 135 0 1 79.375-79.375z"
       fill="#fff"
       stroke-linecap="round"
       stroke-linejoin="round"
       stroke-width=".48425"
       id="path15" />
    <g
       transform="translate(-256.49 -377.03)"
       filter="url(#filter1525)"
       id="g33">
      <g
         transform="translate(-123.36 198.99)"
         font-family="JetBrainsMono-Regular, 'JetBrains Mono', monospace"
         id="g23">
        <text
           x="132.397"
           y="203.97099"
           font-size="288px"
           id="text17">X</text>
        <text
           x="305.19699"
           y="203.97099"
           font-size="144px"
           id="text19">C ntr l</text>
        <text
           x="132.397"
           y="275.97101"
           font-size="36px"
           id="text21">by Sebastian Knackstedt</text>
      </g>
      <g
         transform="matrix(.45972 0 0 .45972 419.84 269.81)"
         id="g27">
        <path
           d="m533.7 107.5c-6.786-0.66-13.62-0.66-20.406 0l-3.579 22.2c-5.352 0.891-10.605 2.298-15.684 4.203l-14.2-17.437c-6.207 2.822-12.126 6.239-17.673 10.203l8.001 21.016c-4.19 3.447-8.035 7.292-11.482 11.482l-21.016-8.001c-3.964 5.547-7.381 11.466-10.203 17.673l17.437 14.2c-1.905 5.079-3.312 10.332-4.203 15.684l-22.2 3.579c-0.66 6.786-0.66 13.62 0 20.406l22.2 3.579c0.891 5.352 2.298 10.605 4.203 15.684l-17.437 14.2c2.822 6.207 6.239 12.126 10.203 17.673l21.016-8.001c3.447 4.19 7.292 8.035 11.482 11.482l-8.001 21.016c5.547 3.964 11.466 7.381 17.673 10.203l14.2-17.437c5.079 1.905 10.332 3.312 15.684 4.203l3.579 22.2c6.786 0.66 13.62 0.66 20.406 0l3.579-22.2c5.352-0.891 10.605-2.298 15.684-4.203l14.2 17.437c6.207-2.822 12.126-6.239 17.673-10.203l-8.001-21.016c4.19-3.447 8.035-7.292 11.482-11.482l21.016 8.001c3.964-5.547 7.381-11.466 10.203-17.673l-17.437-14.2c1.905-5.079 3.312-10.332 4.203-15.684l22.2-3.579c0.66-6.786 0.66-13.62 0-20.406l-22.2-3.579c-0.891-5.352-2.298-10.605-4.203-15.684l17.437-14.2c-2.822-6.207-6.239-12.126-10.203-17.673l-21.016 8.001c-3.447-4.19-7.292-8.035-11.482-11.482l8.001-21.016c-5.547-3.964-11.466-7.381-17.673-10.203l-14.2 17.437c-5.079-1.905-10.332-3.312-15.684-4.203zm-10.203 59.434c25.151 0 45.571 20.42 45.571 45.571s-20.42 45.571-45.571 45.571-45.571-20.42-45.571-45.571 20.42-45.571 45.571-45.571z"
           id="path25" />
      </g>
      <g
         transform="matrix(.45972 0 0 .45972 69.839 269.81)"
         id="g31">
        <path
           d="m533.7 107.5c-6.786-0.66-13.62-0.66-20.406 0l-3.579 22.2c-5.352 0.891-10.605 2.298-15.684 4.203l-14.2-17.437c-6.207 2.822-12.126 6.239-17.673 10.203l8.001 21.016c-4.19 3.447-8.035 7.292-11.482 11.482l-21.016-8.001c-3.964 5.547-7.381 11.466-10.203 17.673l17.437 14.2c-1.905 5.079-3.312 10.332-4.203 15.684l-22.2 3.579c-0.66 6.786-0.66 13.62 0 20.406l22.2 3.579c0.891 5.352 2.298 10.605 4.203 15.684l-17.437 14.2c2.822 6.207 6.239 12.126 10.203 17.673l21.016-8.001c3.447 4.19 7.292 8.035 11.482 11.482l-8.001 21.016c5.547 3.964 11.466 7.381 17.673 10.203l14.2-17.437c5.079 1.905 10.332 3.312 15.684 4.203l3.579 22.2c6.786 0.66 13.62 0.66 20.406 0l3.579-22.2c5.352-0.891 10.605-2.298 15.684-4.203l14.2 17.437c6.207-2.822 12.126-6.239 17.673-10.203l-8.001-21.016c4.19-3.447 8.035-7.292 11.482-11.482l21.016 8.001c3.964-5.547 7.381-11.466 10.203-17.673l-17.437-14.2c1.905-5.079 3.312-10.332 4.203-15.684l22.2-3.579c0.66-6.786 0.66-13.62 0-20.406l-22.2-3.579c-0.891-5.352-2.298-10.605-4.203-15.684l17.437-14.2c-2.822-6.207-6.239-12.126-10.203-17.673l-21.016 8.001c-3.447-4.19-7.292-8.035-11.482-11.482l8.001-21.016c-5.547-3.964-11.466-7.381-17.673-10.203l-14.2 17.437c-5.079-1.905-10.332-3.312-15.684-4.203zm-10.203 59.434c25.151 0 45.571 20.42 45.571 45.571s-20.42 45.571-45.571 45.571-45.571-20.42-45.571-45.571 20.42-45.571 45.571-45.571z"
           id="path29" />
      </g>
    </g>
  </g>
</svg>
