<?xml version="1.0" encoding="UTF-8"?>
<svg width="210mm" height="297mm" version="1.1" viewBox="0 0 210 297" xmlns="http://www.w3.org/2000/svg">
 <defs>
  <filter id="filter1525" color-interpolation-filters="sRGB">
   <feFlood flood-color="rgb(0,0,0)" flood-opacity=".49804" result="flood"/>
   <feComposite in="flood" in2="SourceGraphic" operator="in" result="composite1"/>
   <feGaussianBlur in="composite1" result="blur" stdDeviation="0.7"/>
   <feOffset dx="2.77556e-17" dy="2.77556e-17" result="offset"/>
   <feComposite in="SourceGraphic" in2="offset" result="composite2"/>
  </filter>
 </defs>
 <g transform="matrix(.26458 0 0 .26458 12.695 121.74)" clip-rule="evenodd" fill-rule="evenodd" stroke-linejoin="round" stroke-miterlimit="2">
  <path d="m-222.18-291.55h722.68a79.375 79.375 45 0 1 79.375 79.375v346.96a79.375 79.375 135 0 1-79.375 79.375h-722.68a79.375 79.375 45 0 1-79.375-79.375v-346.96a79.375 79.375 135 0 1 79.375-79.375z" fill="#fff" stroke-linecap="round" stroke-linejoin="round" stroke-width=".48425"/>
  <g transform="translate(-256.49 -377.03)" filter="url(#filter1525)">
   <g transform="translate(-123.36 198.99)" font-family="JetBrainsMono-Regular, 'JetBrains Mono', monospace">
    <text x="132.397" y="203.97099" font-size="288px">X</text>
    <text x="305.19699" y="203.97099" font-size="144px">C ntr l</text>
    <text x="132.397" y="275.97101" font-size="36px">by Sebastian Knackstedt</text>
   </g>
   <g transform="matrix(.45972 0 0 .45972 419.84 269.81)">
    <path d="m533.7 107.5c-6.786-0.66-13.62-0.66-20.406 0l-3.579 22.2c-5.352 0.891-10.605 2.298-15.684 4.203l-14.2-17.437c-6.207 2.822-12.126 6.239-17.673 10.203l8.001 21.016c-4.19 3.447-8.035 7.292-11.482 11.482l-21.016-8.001c-3.964 5.547-7.381 11.466-10.203 17.673l17.437 14.2c-1.905 5.079-3.312 10.332-4.203 15.684l-22.2 3.579c-0.66 6.786-0.66 13.62 0 20.406l22.2 3.579c0.891 5.352 2.298 10.605 4.203 15.684l-17.437 14.2c2.822 6.207 6.239 12.126 10.203 17.673l21.016-8.001c3.447 4.19 7.292 8.035 11.482 11.482l-8.001 21.016c5.547 3.964 11.466 7.381 17.673 10.203l14.2-17.437c5.079 1.905 10.332 3.312 15.684 4.203l3.579 22.2c6.786 0.66 13.62 0.66 20.406 0l3.579-22.2c5.352-0.891 10.605-2.298 15.684-4.203l14.2 17.437c6.207-2.822 12.126-6.239 17.673-10.203l-8.001-21.016c4.19-3.447 8.035-7.292 11.482-11.482l21.016 8.001c3.964-5.547 7.381-11.466 10.203-17.673l-17.437-14.2c1.905-5.079 3.312-10.332 4.203-15.684l22.2-3.579c0.66-6.786 0.66-13.62 0-20.406l-22.2-3.579c-0.891-5.352-2.298-10.605-4.203-15.684l17.437-14.2c-2.822-6.207-6.239-12.126-10.203-17.673l-21.016 8.001c-3.447-4.19-7.292-8.035-11.482-11.482l8.001-21.016c-5.547-3.964-11.466-7.381-17.673-10.203l-14.2 17.437c-5.079-1.905-10.332-3.312-15.684-4.203zm-10.203 59.434c25.151 0 45.571 20.42 45.571 45.571s-20.42 45.571-45.571 45.571-45.571-20.42-45.571-45.571 20.42-45.571 45.571-45.571z"/>
   </g>
   <g transform="matrix(.45972 0 0 .45972 69.839 269.81)">
    <path d="m533.7 107.5c-6.786-0.66-13.62-0.66-20.406 0l-3.579 22.2c-5.352 0.891-10.605 2.298-15.684 4.203l-14.2-17.437c-6.207 2.822-12.126 6.239-17.673 10.203l8.001 21.016c-4.19 3.447-8.035 7.292-11.482 11.482l-21.016-8.001c-3.964 5.547-7.381 11.466-10.203 17.673l17.437 14.2c-1.905 5.079-3.312 10.332-4.203 15.684l-22.2 3.579c-0.66 6.786-0.66 13.62 0 20.406l22.2 3.579c0.891 5.352 2.298 10.605 4.203 15.684l-17.437 14.2c2.822 6.207 6.239 12.126 10.203 17.673l21.016-8.001c3.447 4.19 7.292 8.035 11.482 11.482l-8.001 21.016c5.547 3.964 11.466 7.381 17.673 10.203l14.2-17.437c5.079 1.905 10.332 3.312 15.684 4.203l3.579 22.2c6.786 0.66 13.62 0.66 20.406 0l3.579-22.2c5.352-0.891 10.605-2.298 15.684-4.203l14.2 17.437c6.207-2.822 12.126-6.239 17.673-10.203l-8.001-21.016c4.19-3.447 8.035-7.292 11.482-11.482l21.016 8.001c3.964-5.547 7.381-11.466 10.203-17.673l-17.437-14.2c1.905-5.079 3.312-10.332 4.203-15.684l22.2-3.579c0.66-6.786 0.66-13.62 0-20.406l-22.2-3.579c-0.891-5.352-2.298-10.605-4.203-15.684l17.437-14.2c-2.822-6.207-6.239-12.126-10.203-17.673l-21.016 8.001c-3.447-4.19-7.292-8.035-11.482-11.482l8.001-21.016c-5.547-3.964-11.466-7.381-17.673-10.203l-14.2 17.437c-5.079-1.905-10.332-3.312-15.684-4.203zm-10.203 59.434c25.151 0 45.571 20.42 45.571 45.571s-20.42 45.571-45.571 45.571-45.571-20.42-45.571-45.571 20.42-45.571 45.571-45.571z"/>
   </g>
  </g>
 </g>
</svg>
